<?xml version="1.0" encoding="UTF-8"?>
<svg width="32px" height="32px" viewBox="0 0 32 32" version="1.1" xmlns="http://www.w3.org/2000/svg" xmlns:xlink="http://www.w3.org/1999/xlink">
    <!-- Generator: Sketch 48.2 (47327) - http://www.bohemiancoding.com/sketch -->
    <title>icon/facebook</title>
    <desc>Created with Sketch.</desc>
    <defs>
        <path d="M24,6 L8,6 C6.9,6 6,6.9 6,8 L6,24 C6,25.1 6.9,26 8,26 L24,26 C25.1,26 26,25.1 26,24 L26,8 C26,6.9 25.1,6 24,6 L24,6 Z M23,8 L23,11 L21,11 C20.4,11 20,11.4 20,12 L20,14 L23,14 L23,17 L20,17 L20,24 L17,24 L17,17 L15,17 L15,14 L17,14 L17,11.5 C17,9.6 18.6,8 20.5,8 L23,8 L23,8 Z" id="path-1"></path>
        <filter x="-5.0%" y="-5.0%" width="110.0%" height="110.0%" filterUnits="objectBoundingBox" id="filter-2">
            <feGaussianBlur stdDeviation="0.5" in="SourceAlpha" result="shadowBlurInner1"></feGaussianBlur>
            <feOffset dx="0" dy="1" in="shadowBlurInner1" result="shadowOffsetInner1"></feOffset>
            <feComposite in="shadowOffsetInner1" in2="SourceAlpha" operator="arithmetic" k2="-1" k3="1" result="shadowInnerInner1"></feComposite>
            <feColorMatrix values="0 0 0 0 0   0 0 0 0 0   0 0 0 0 0  0 0 0 0.15 0" type="matrix" in="shadowInnerInner1"></feColorMatrix>
        </filter>
    </defs>
    <g id="Symbols" stroke="none" stroke-width="1" fill="none" fill-rule="evenodd">
        <g id="icon/facebook">
            <g>
                <g id="Shape">
                    <use fill="#EFEFEF" fill-rule="evenodd" xlink:href="#path-1"></use>
                    <use fill="black" fill-opacity="1" filter="url(#filter-2)" xlink:href="#path-1"></use>
                </g>
                <rect id="Rectangle" x="0" y="0" width="32" height="32"></rect>
            </g>
        </g>
    </g>
</svg>