<?xml version="1.0" encoding="UTF-8"?>
<svg width="32px" height="32px" viewBox="0 0 32 32" version="1.1" xmlns="http://www.w3.org/2000/svg" xmlns:xlink="http://www.w3.org/1999/xlink">
    <!-- Generator: Sketch 48.2 (47327) - http://www.bohemiancoding.com/sketch -->
    <title>icon/instagram</title>
    <desc>Created with Sketch.</desc>
    <defs>
        <path d="M24,6 L8,6 C6.9,6 6,6.9 6,8 L6,24 C6,25.1 6.9,26 8,26 L24,26 C25.1,26 26,25.1 26,24 L26,8 C26,6.9 25.1,6 24,6 L24,6 Z M16,12 C18.2,12 20,13.8 20,16 C20,18.2 18.2,20 16,20 C13.8,20 12,18.2 12,16 C12,13.8 13.8,12 16,12 L16,12 Z M8.5,24 C8.2,24 8,23.8 8,23.5 L8,15 L10.1,15 C10,15.3 10,15.7 10,16 C10,19.3 12.7,22 16,22 C19.3,22 22,19.3 22,16 C22,15.7 22,15.3 21.9,15 L24,15 L24,23.5 C24,23.8 23.8,24 23.5,24 L8.5,24 L8.5,24 Z M24,10.5 C24,10.8 23.8,11 23.5,11 L21.5,11 C21.2,11 21,10.8 21,10.5 L21,8.5 C21,8.2 21.2,8 21.5,8 L23.5,8 C23.8,8 24,8.2 24,8.5 L24,10.5 L24,10.5 Z" id="path-1"></path>
        <filter x="-5.0%" y="-5.0%" width="110.0%" height="110.0%" filterUnits="objectBoundingBox" id="filter-2">
            <feGaussianBlur stdDeviation="0.5" in="SourceAlpha" result="shadowBlurInner1"></feGaussianBlur>
            <feOffset dx="0" dy="1" in="shadowBlurInner1" result="shadowOffsetInner1"></feOffset>
            <feComposite in="shadowOffsetInner1" in2="SourceAlpha" operator="arithmetic" k2="-1" k3="1" result="shadowInnerInner1"></feComposite>
            <feColorMatrix values="0 0 0 0 0   0 0 0 0 0   0 0 0 0 0  0 0 0 0.15 0" type="matrix" in="shadowInnerInner1"></feColorMatrix>
        </filter>
    </defs>
    <g id="Symbols" stroke="none" stroke-width="1" fill="none" fill-rule="evenodd">
        <g id="icon/instagram">
            <g>
                <g id="Shape">
                    <use fill="#EFEFEF" fill-rule="evenodd" xlink:href="#path-1"></use>
                    <use fill="black" fill-opacity="1" filter="url(#filter-2)" xlink:href="#path-1"></use>
                </g>
                <rect id="Rectangle" x="0" y="0" width="32" height="32"></rect>
            </g>
        </g>
    </g>
</svg>