<?xml version="1.0" encoding="UTF-8"?>
<svg width="32px" height="32px" viewBox="0 0 32 32" version="1.1" xmlns="http://www.w3.org/2000/svg" xmlns:xlink="http://www.w3.org/1999/xlink">
    <!-- Generator: Sketch 48.2 (47327) - http://www.bohemiancoding.com/sketch -->
    <title>icon/Twitter</title>
    <desc>Created with Sketch.</desc>
    <defs>
        <path d="M24,6 L8,6 C6.9,6 6,6.9 6,8 L6,24 C6,25.1 6.9,26 8,26 L24,26 C25.1,26 26,25.1 26,24 L26,8 C26,6.9 25.1,6 24,6 L24,6 Z M21.7,13.3 C21.6,17.9 18.7,21.1 14.3,21.3 C12.5,21.4 11.2,20.8 10,20.1 C11.3,20.3 13,19.8 13.9,19 C12.6,18.9 11.8,18.2 11.4,17.1 C11.8,17.2 12.2,17.1 12.5,17.1 C11.3,16.7 10.5,16 10.4,14.4 C10.7,14.6 11.1,14.7 11.5,14.7 C10.6,14.2 10,12.3 10.7,11.1 C12,12.5 13.6,13.7 16.2,13.9 C15.5,11.1 19.3,9.6 20.8,11.5 C21.5,11.4 22,11.1 22.5,10.9 C22.3,11.6 21.9,12 21.4,12.4 C21.9,12.3 22.4,12.2 22.8,12 C22.7,12.5 22.2,12.9 21.7,13.3 L21.7,13.3 Z" id="path-1"></path>
        <filter x="-5.0%" y="-5.0%" width="110.0%" height="110.0%" filterUnits="objectBoundingBox" id="filter-2">
            <feGaussianBlur stdDeviation="0.5" in="SourceAlpha" result="shadowBlurInner1"></feGaussianBlur>
            <feOffset dx="0" dy="1" in="shadowBlurInner1" result="shadowOffsetInner1"></feOffset>
            <feComposite in="shadowOffsetInner1" in2="SourceAlpha" operator="arithmetic" k2="-1" k3="1" result="shadowInnerInner1"></feComposite>
            <feColorMatrix values="0 0 0 0 0   0 0 0 0 0   0 0 0 0 0  0 0 0 0.15 0" type="matrix" in="shadowInnerInner1"></feColorMatrix>
        </filter>
    </defs>
    <g id="Symbols" stroke="none" stroke-width="1" fill="none" fill-rule="evenodd">
        <g id="icon/Twitter">
            <g id="Group">
                <g id="Shape">
                    <use fill="#EFEFEF" fill-rule="evenodd" xlink:href="#path-1"></use>
                    <use fill="black" fill-opacity="1" filter="url(#filter-2)" xlink:href="#path-1"></use>
                </g>
                <rect id="Rectangle" x="0" y="0" width="32" height="32"></rect>
            </g>
        </g>
    </g>
</svg>