<?xml version="1.0" encoding="UTF-8"?>
<svg width="86px" height="103px" viewBox="0 0 86 103" version="1.1" xmlns="http://www.w3.org/2000/svg" xmlns:xlink="http://www.w3.org/1999/xlink">
    <!-- Generator: Sketch 48.2 (47327) - http://www.bohemiancoding.com/sketch -->
    <title>Logo</title>
    <desc>Created with Sketch.</desc>
    <defs>
        <polygon id="path-1" points="0 0 86 0 86 103 0 103"></polygon>
        <path d="M84.2422111,95.0767584 C81.8823388,99.721178 76.6917305,101.713224 71.9897545,101.389143 C69.1934448,101.196685 66.5670458,100.004334 64.2871316,98.394991 C62.0116596,96.4792647 60.1248723,93.3612321 60.1248723,88.2843362 L60.1248723,74.5623383 C61.4997061,74.3123648 62.8823136,74.1199073 64.2726948,74.0181482 C67.6320423,73.7670686 71.0546899,74.0767703 74.2085897,75.242576 C75.7855396,75.8177363 77.283642,76.5953088 78.6740232,77.5354747 C80.0644043,78.4634738 81.3015326,79.6137944 82.3054501,80.9466179 C84.3243901,83.5989918 85.3205338,86.8762995 85.2394653,90.2078051 C85.2005968,91.8691335 84.9840438,93.6189482 84.2422111,95.0767584 M31.7331109,44.4847718 L31.7331109,21.3799181 C31.7331109,17.8128181 27.7329887,16.214536 24.4946888,15.6902553 C24.4558203,15.685831 24.4213939,15.6791945 24.3869675,15.672558 C24.2003988,15.657073 24.0804618,15.6880431 23.9416458,15.6526486 C23.8572456,15.6316332 23.7961666,15.5597381 23.8439193,15.4801006 C23.8750141,15.4303271 23.9727405,15.4502365 24.2625884,15.4502365 C24.9400105,15.4502365 25.9194963,15.4823127 25.9628069,15.4823127 L25.9283805,15.4911613 C29.5487021,15.5022221 34.0207988,15.4823127 34.5716207,15.4823127 C40.3086089,15.4823127 45.8179388,16.370493 45.8179388,21.8035458 C45.8179388,26.7963798 45.8790178,33.5445589 45.8790178,39.0793709 C45.8790178,44.6097586 43.1615556,48.8504599 37.4112411,48.8504599 C33.9019723,48.8504599 31.7331109,46.3031633 31.7331109,44.4847718 M85.1906021,85.1740462 C84.6608802,83.5237785 83.8601894,81.9553606 82.8196246,80.5617029 C81.7823913,79.165833 80.4941787,77.952466 79.0560448,76.9780116 C77.6245741,76.0057695 76.0753874,75.1972268 74.4473532,74.5966267 C71.1868427,73.3854718 67.6531423,73.0613911 64.222721,73.3091525 C62.8445556,73.4064873 61.4786061,73.5900961 60.1248723,73.8279028 L60.1248723,51.0515542 C60.1248723,46.9148242 61.1787635,46.6427291 60.2037198,45.9447942 C58.9954652,45.0809476 57.0320516,47.3273911 54.2057575,48.8747936 C53.0519188,49.5052578 48.5431748,51.8855366 43.0727133,51.2639211 C42.8983604,51.2417995 42.6362758,51.2594967 42.4386018,51.2462238 C42.3497595,51.2395873 42.2764647,51.1853895 42.30867,51.0969033 C42.3286595,51.0427055 42.4219439,51.0128415 42.7129022,50.9874017 C43.3503454,50.9287796 44.3287206,50.6113353 44.3675891,50.5980624 C49.700345,48.7752466 54.4078737,39.6545312 58.2269798,39.6545312 C59.2186814,39.6545312 60.1248723,39.6578494 60.1248723,38.1137652 L60.1248723,6.68567805 C60.1248723,1.62205508 61.5263588,1.36212686 60.4813518,0.323520055 C59.4352344,-0.717298908 57.2186203,0.976105802 55.1519275,2.25251928 C48.316627,6.47773547 34.6937788,12.8343631 18.2457471,12.8343631 C17.0119504,12.8343631 13.6781451,12.8354692 12.904107,12.8354692 C12.0512214,12.8354692 10.374324,12.5379343 10.374324,14.1085644 C10.374324,15.6836188 11.3138307,15.672558 12.6808908,15.672558 C13.6781451,15.672558 16.0657805,15.9446531 16.0657805,17.1436412 L16.0657805,57.4424702 C10.3598871,57.4424702 4.69841484,60.0262673 1.66223102,64.4538957 C-1.60938477,69.2266203 0.16968125,76.4094878 5.06266806,79.6171127 C7.93893584,81.505187 11.1494726,82.9353453 14.5199254,83.6764172 C17.8925992,84.4329743 21.3840995,84.5347334 24.8011945,84.1995919 C28.2238421,83.8666626 31.5809686,83.1189541 34.8714633,82.2009098 C36.8148875,81.6567196 40.0554085,80.620325 41.5457372,80.1270144 C41.9810642,79.9832243 43.2692768,80.0518011 43.0316238,79.3040927 C42.8295077,78.680265 41.9077694,79.1901667 41.3913738,79.3582905 C39.8055397,79.8748287 36.6027766,80.9067991 34.6593525,81.4454588 C31.3943998,82.3480181 28.0783629,83.0758171 24.722347,83.3932614 C21.3718837,83.7140239 17.9747783,83.6034161 14.704273,82.8645563 C11.4326572,82.1345451 8.30763117,80.7928731 5.53575303,78.9025866 C0.465081724,75.4416699 0.117486429,68.2742875 1.7444101,65.899539 C3.04594903,64.0004039 3.68561321,63.2947264 5.01935746,62.3954854 C6.35976488,61.4840775 7.91561475,60.8967503 9.52476996,60.5848365 C11.1361462,60.2762408 12.8041594,60.2397403 14.447741,60.4233491 C17.4783722,60.7607028 20.4101664,61.8269615 23.0265706,63.4152889 C27.6463675,66.5045634 29.266628,70.8249023 29.4731862,71.2662272 C29.939608,72.2594849 30.2727665,72.6289148 31.2855681,72.4430937 C32.2861539,72.2594849 32.6781703,72.2860307 32.5748912,71.2618029 C32.448291,70.0429055 31.7331109,68.124967 31.7331109,63.6718989 L31.7331109,48.0341746 C31.7331109,49.6236081 37.6477836,54.1563138 44.2476521,54.1563138 C45.6735701,54.1563138 45.7724071,54.7635504 45.7402018,56.2368457 C45.7224334,57.1394049 45.7724071,82.8369044 45.7724071,84.7758583 C45.7724071,87.2003803 42.6173968,87.1329095 44.7729319,89.2809121 L45.4947751,89.9744227 C48.3710429,92.7949204 51.4794111,95.4185364 54.9042797,97.5787058 C56.6178246,98.6560253 58.4157696,99.6028277 60.2836778,100.393673 C60.8600419,100.63701 69.4732979,104.528191 76.8782992,102.329309 C78.6284915,101.810558 80.5419314,100.909105 81.8823388,99.721178 C83.0317354,98.6969502 84.4498798,96.939393 85.0295755,95.4351275 C85.6736818,93.7671626 85.979077,92.0239844 85.9990665,90.291867 C86.019056,88.5509009 85.7169924,86.8221017 85.1906021,85.1740462" id="path-3"></path>
        <filter x="-1.2%" y="-1.0%" width="102.3%" height="101.9%" filterUnits="objectBoundingBox" id="filter-4">
            <feGaussianBlur stdDeviation="0.5" in="SourceAlpha" result="shadowBlurInner1"></feGaussianBlur>
            <feOffset dx="0" dy="1" in="shadowBlurInner1" result="shadowOffsetInner1"></feOffset>
            <feComposite in="shadowOffsetInner1" in2="SourceAlpha" operator="arithmetic" k2="-1" k3="1" result="shadowInnerInner1"></feComposite>
            <feColorMatrix values="0 0 0 0 0   0 0 0 0 0   0 0 0 0 0  0 0 0 0.2 0" type="matrix" in="shadowInnerInner1"></feColorMatrix>
        </filter>
    </defs>
    <g id="Nav" stroke="none" stroke-width="1" fill="none" fill-rule="evenodd" transform="translate(-157.000000, 0.000000)">
        <g id="Logo">
            <g transform="translate(157.000000, 0.000000)">
                <g>
                    <mask id="mask-2" fill="white">
                        <use xlink:href="#path-1"></use>
                    </mask>
                    <g id="Clip-2"></g>
                    <g id="Fill-1" mask="url(#mask-2)">
                        <use fill="#AFA35E" fill-rule="evenodd" xlink:href="#path-3"></use>
                        <use fill="black" fill-opacity="1" filter="url(#filter-4)" xlink:href="#path-3"></use>
                    </g>
                </g>
            </g>
        </g>
    </g>
</svg>